# xmcd CD database file
#
# Track frame offsets:
#	150
#	14791
#	31363
#	45224
#	57244
#	70935
#	86290
#	99640
#	114141
#	126140
#	137535
#	150133
#
# Disc length: 2155 seconds
#
# Revision: 0
# Processed by: cddbd v1.5.2PL0 Copyright (c) Steve Scherf et al.
# Submitted via: CDex 1.70beta2
#
DISCID=8a08690c
DTITLE=Hicks, Peter - Cdn. - AB - Home Is You
DYEAR=2007
DGENRE=Country
TTITLE0=Tombstone
TTITLE1=Rose Of My Heart
TTITLE2=Face That Bed
TTITLE3=How Proud
TTITLE4=That Wasn't You
TTITLE5=If You Ever
TTITLE6=Home Is You
TTITLE7=I Wish I Could
TTITLE8=Lovers Lullabye
TTITLE9=Rocket Rider
TTITLE10=Sunset Years Of Life
TTITLE11=Wings
EXTD=YEAR: 2007
EXTT0=
EXTT1=
EXTT2=
EXTT3=
EXTT4=
EXTT5=
EXTT6=
EXTT7=
EXTT8=
EXTT9=
EXTT10=
EXTT11=
PLAYORDER=
